<?xml version="1.0" encoding="UTF-8" standalone="no"?>
<!DOCTYPE svg PUBLIC "-//W3C//DTD SVG 1.1//EN" "http://www.w3.org/Graphics/SVG/1.1/DTD/svg11.dtd">
<svg width="100%" height="100%" viewBox="0 0 287 260" version="1.1" xmlns="http://www.w3.org/2000/svg" xmlns:xlink="http://www.w3.org/1999/xlink" xml:space="preserve" style="fill-rule:evenodd;clip-rule:evenodd;stroke-linejoin:round;stroke-miterlimit:1.41421;">
    <g transform="matrix(1,0,0,1,-32.9051,-12.8414)">
        <g transform="matrix(72.4972,0,0,1.25503,-25261.1,-360.147)">
            <g>
                <g transform="matrix(0.027297,0,0,1.57681,346.909,191.779)">
                    <path d="M146.471,148.673C128.575,155.015 108.803,156.537 93.806,151.625C78.319,146.553 71.668,135.848 74.365,123.849L74.202,124.595C73.398,129.252 72.64,133.651 72.819,140.294C73.276,146.601 73.346,147.571 74.415,152.666C76.363,161.276 83.536,168.466 95.725,172.458C110.231,177.209 128.83,176.445 146.471,171.391L146.471,148.673Z" style="fill:rgb(250,167,80);fill-rule:nonzero;"/>
                </g>
                <g transform="matrix(0.027297,0,0,1.57681,346.909,191.779)">
                    <path d="M197.317,179.626C182.078,193.291 156.377,200.264 137.588,196.346C138.657,196.592 139.77,196.839 140.704,196.993C145.613,197.71 145.707,197.724 148.547,197.885C153.052,198.006 153.052,198.006 155.423,197.885C159.545,197.569 159.545,197.569 161.627,197.26C165.492,196.596 165.492,196.596 167.4,196.135C171.114,195.15 171.114,195.15 172.933,194.538C176.523,193.24 176.592,193.215 178.385,192.427C182.009,190.734 182.078,190.702 183.911,189.681C187.572,187.517 187.715,187.432 189.656,186.071C193.396,183.284 193.621,183.117 195.746,181.225C197.034,179.999 198.746,178.357 199.978,177.074L201.089,175.852C199.962,177.12 198.705,178.381 197.317,179.626Z" style="fill:rgb(49,132,180);fill-rule:nonzero;"/>
                </g>
                <g transform="matrix(0.027297,0,0,1.57681,346.909,191.779)">
                    <path d="M96.033,166.543C95.779,166.135 95.533,165.739 95.302,165.375C95.531,165.77 95.776,166.158 96.033,166.543Z" style="fill:rgb(49,132,180);fill-rule:nonzero;"/>
                </g>
                <g transform="matrix(0.027297,0,0,1.57681,346.909,191.779)">
                    <path d="M217.521,130.313L217.409,128.085C218.021,137.276 213.003,147.744 202.121,157.503C179.464,177.821 139.969,187.371 113.904,178.833C105.5,176.081 99.521,171.783 96.033,166.543C96.953,168.023 97.992,169.7 98.927,170.954C102.719,175.78 103.403,176.649 107.525,180.623C112.443,184.826 112.443,184.826 115.129,186.647C117.667,188.359 120.695,189.818 124.208,190.969C146.979,198.427 181.484,190.084 201.277,172.334C206.92,167.273 210.758,161.995 212.834,156.86C214.859,151.242 215.119,150.521 216.138,146.012C216.941,141.354 217.7,136.956 217.521,130.313Z" style="fill:rgb(49,132,180);fill-rule:nonzero;"/>
                </g>
                <g transform="matrix(0.027297,0,0,1.57681,346.909,191.779)">
                    <path d="M198.988,145.01C212.673,132.738 217.229,119.362 213.11,108.71C212.134,106.454 210.801,103.455 209.686,101.264C206.457,95.789 205.96,94.947 202.5,90.585C201.264,89.203 199.692,87.479 198.256,85.99C207.843,96.358 205.223,111.958 189.578,125.988C168.484,144.904 131.711,153.796 107.443,145.848C91.956,140.775 85.304,130.07 88.002,118.071L87.839,118.818C87.035,123.475 86.276,127.874 86.456,134.517C86.913,140.824 86.983,141.793 88.052,146.889C90,155.499 97.173,162.688 109.362,166.681C135.843,175.354 175.97,165.651 198.988,145.01Z" style="fill:rgb(49,132,180);fill-rule:nonzero;"/>
                </g>
                <g transform="matrix(0.027297,0,0,1.57681,346.909,191.779)">
                    <path d="M197.056,84.77C197.437,85.147 197.842,85.56 198.256,85.99C197.874,85.576 197.478,85.167 197.056,84.77Z" style="fill:rgb(49,132,180);fill-rule:nonzero;"/>
                </g>
                <g transform="matrix(0.027297,0,0,1.57681,346.909,191.779)">
                    <path d="M112.711,80.662C125.24,69.427 147.08,64.146 161.493,68.867C175.905,73.587 177.433,86.521 164.905,97.756C152.377,108.99 130.537,114.271 116.124,109.551C101.711,104.83 100.184,91.896 112.711,80.662ZM109.276,130.942C130.36,137.848 162.311,130.122 180.639,113.687C197.628,98.452 196.948,81.08 179.962,73.123C177.72,72.161 174.7,70.945 172.404,70.123C167.162,68.588 166.848,68.496 163.273,67.836C158.364,67.119 158.27,67.105 155.429,66.944C150.925,66.823 150.925,66.823 148.554,66.944C144.432,67.26 144.432,67.26 142.35,67.569C138.486,68.233 138.486,68.233 136.577,68.695C132.863,69.679 132.863,69.679 131.044,70.291C127.454,71.589 127.385,71.614 125.592,72.402C121.969,74.095 121.899,74.127 120.067,75.148C116.406,77.312 116.263,77.397 114.322,78.758C110.581,81.545 110.357,81.712 108.232,83.603C106.944,84.83 105.232,86.472 104,87.755C100.554,91.696 100.111,92.202 97.787,95.526L95.732,98.737C87.607,112.211 92.414,125.419 109.276,130.942Z" style="fill:rgb(49,132,180);fill-rule:nonzero;"/>
                </g>
                <g transform="matrix(0.027297,0,0,1.57681,346.909,191.779)">
                    <path d="M123.348,96.245C132.132,99.122 145.442,95.904 153.077,89.057C160.712,82.21 159.781,74.327 150.998,71.45C142.214,68.573 128.904,71.791 121.269,78.639C113.633,85.485 114.564,93.368 123.348,96.245Z" style="fill:rgb(49,132,180);fill-rule:nonzero;"/>
                </g>
                <g transform="matrix(0.027297,0,0,1.57681,346.909,191.779)">
                    <path d="M187.094,185.585C177.021,194.618 159.462,198.864 147.875,195.069C136.287,191.273 135.059,180.875 145.131,171.842C155.204,162.809 172.763,158.563 184.351,162.359C195.938,166.154 197.167,176.553 187.094,185.585ZM192.824,141.59C173.848,135.375 145.093,142.328 128.599,157.119C112.104,171.911 114.116,188.94 133.092,195.155C133.937,195.432 134.801,195.682 135.683,195.907C137.178,196.279 139.194,196.68 140.704,196.993C143.577,197.484 143.952,197.515 148.547,197.885C150.962,198.008 151.129,198.003 155.423,197.885C157.548,197.771 157.625,197.762 161.627,197.26C163.581,196.969 163.653,196.953 167.4,196.135C169.267,195.684 169.267,195.684 172.933,194.538C174.779,193.917 174.779,193.917 178.385,192.427C180.28,191.594 180.28,191.594 183.911,189.681C185.935,188.548 185.935,188.548 189.656,186.071C191.909,184.475 191.981,184.415 195.746,181.225C197.052,180.019 198.727,178.338 199.978,177.074L201.089,175.852C213.353,162.044 210.203,147.282 192.824,141.59Z" style="fill:rgb(90,179,228);fill-rule:nonzero;"/>
                </g>
                <g transform="matrix(0.027297,0,0,1.57681,346.909,191.779)">
                    <path d="M187.094,185.585C177.021,194.618 159.462,198.864 147.875,195.069C136.287,191.273 135.059,180.875 145.131,171.842C155.204,162.809 172.763,158.563 184.351,162.359C195.938,166.154 197.167,176.553 187.094,185.585ZM192.824,141.59C173.848,135.375 145.093,142.328 128.599,157.119C112.104,171.911 114.116,188.94 133.092,195.155C133.937,195.432 134.801,195.682 135.683,195.907C137.178,196.279 139.194,196.68 140.704,196.993C143.577,197.484 143.952,197.515 148.547,197.885C150.962,198.008 151.129,198.003 155.423,197.885C157.548,197.771 157.625,197.762 161.627,197.26C163.581,196.969 163.653,196.953 167.4,196.135C169.267,195.684 169.267,195.684 172.933,194.538C174.779,193.917 174.779,193.917 178.385,192.427C180.28,191.594 180.28,191.594 183.911,189.681C185.935,188.548 185.935,188.548 189.656,186.071C191.909,184.475 191.981,184.415 195.746,181.225C197.052,180.019 198.727,178.338 199.978,177.074L201.089,175.852C213.353,162.044 210.203,147.282 192.824,141.59Z" style="fill:rgb(90,179,228);fill-rule:nonzero;"/>
                </g>
                <g transform="matrix(0.027297,0,0,1.57681,346.909,191.779)">
                    <path d="M217.409,128.085C216.746,118.143 209.494,109.695 195.95,105.259C169.885,96.723 130.389,106.272 107.733,126.589C92.918,139.875 88.972,154.474 95.302,165.375C96.323,167.09 97.82,169.293 98.927,170.954C102.427,175.554 103.305,176.427 107.525,180.623C109.613,182.546 109.962,182.853 113.367,185.355C101.33,175.771 102.82,159.672 118.817,145.327C138.61,127.577 173.115,119.234 195.886,126.692C212.164,132.023 218.039,143.987 212.834,156.86C214.487,152.59 214.643,151.967 216.138,146.012C217.468,139.552 217.493,135.064 217.521,130.313L217.409,128.085Z" style="fill:rgb(90,179,228);fill-rule:nonzero;"/>
                </g>
                <g transform="matrix(0.027297,0,0,1.57681,346.909,191.779)">
                    <path d="M212.517,107.323C212.727,107.803 212.929,108.272 213.11,108.71C212.929,108.243 212.731,107.78 212.517,107.323Z" style="fill:rgb(90,179,228);fill-rule:nonzero;"/>
                </g>
                <g transform="matrix(0.027297,0,0,1.57681,346.909,191.779)">
                    <path d="M87.769,145.364C87.847,145.876 87.938,146.385 88.052,146.889C87.95,146.341 87.856,145.836 87.769,145.364Z" style="fill:rgb(90,179,228);fill-rule:nonzero;"/>
                </g>
                <g transform="matrix(0.027297,0,0,1.57681,346.909,191.779)">
                    <path d="M103.092,113.602C126.11,92.96 166.237,83.258 192.718,91.931C202.765,95.221 209.403,100.684 212.517,107.323C211.637,105.317 210.556,103.047 209.686,101.264C206.92,96.372 206.246,95.488 202.5,90.585C200.934,88.78 198.729,86.477 197.056,84.77C193.799,81.705 189.383,79.164 183.833,77.346C159.565,69.397 122.792,78.289 101.697,97.205C94.064,104.049 89.531,111.268 88.002,118.071L87.839,118.818C86.509,125.278 86.483,129.765 86.456,134.517C86.688,139.222 86.836,140.315 87.769,145.364C86.28,135.592 91.288,124.187 103.092,113.602Z" style="fill:rgb(90,179,228);fill-rule:nonzero;"/>
                </g>
                <g transform="matrix(0.027297,0,0,1.57681,346.909,191.779)">
                    <path d="M104.284,88.679C122.612,72.244 154.562,64.519 175.646,71.424C176.212,71.61 176.76,71.807 177.299,72.009C176.342,71.622 175.356,71.235 174.41,70.873C174.288,70.822 174.167,70.769 174.043,70.72C173.503,70.502 172.956,70.303 172.404,70.123L172.405,70.123L172.404,70.123C168.836,68.99 168.203,68.859 163.273,67.836C160.399,67.345 160.024,67.315 155.429,66.944C153.015,66.821 152.847,66.826 148.554,66.944C146.429,67.058 146.352,67.067 142.35,67.569C140.396,67.86 140.324,67.876 136.577,68.695C134.71,69.146 134.71,69.146 131.044,70.291C129.198,70.913 129.198,70.913 125.592,72.402C123.697,73.235 123.697,73.235 120.067,75.148C118.043,76.281 118.043,76.281 114.322,78.758C112.069,80.353 111.997,80.415 108.232,83.603C106.926,84.81 105.251,86.491 104,87.755C101.302,90.717 100.969,91.172 97.787,95.526L96.652,97.3C98.596,94.402 101.134,91.504 104.284,88.679Z" style="fill:rgb(90,179,228);fill-rule:nonzero;"/>
                </g>
                <g transform="matrix(0.027297,0,0,1.57681,346.909,191.779)">
                    <path d="M96.652,97.3C96.331,97.779 96.021,98.258 95.732,98.737L96.652,97.3Z" style="fill:rgb(90,179,228);fill-rule:nonzero;"/>
                </g>
                <g transform="matrix(0.027297,0,0,1.57681,346.909,191.779)">
                    <path d="M154.458,192.391C163.242,195.268 176.552,192.05 184.187,185.203C191.822,178.356 190.891,170.473 182.107,167.596C173.324,164.72 160.013,167.938 152.378,174.785C144.743,181.632 145.674,189.514 154.458,192.391Z" style="fill:rgb(90,179,228);fill-rule:nonzero;"/>
                </g>
                <g transform="matrix(0.027297,0,0,1.57681,346.909,191.779)">
                    <path d="M175.39,88.255L140.552,72.009L140.552,80.759C121.563,82.847 101.588,90.852 88.06,102.982C80.428,109.827 75.894,117.045 74.365,123.849L74.202,124.595C72.872,131.055 72.847,135.542 72.819,140.294C73.051,144.999 73.199,146.092 74.132,151.141C72.644,141.37 77.651,129.964 89.455,119.379C102.754,107.453 121.763,99.182 140.552,95.993L140.552,104.5L175.39,88.255Z" style="fill:rgb(253,221,121);fill-rule:nonzero;"/>
                </g>
                <g transform="matrix(0.027297,0,0,1.57681,346.909,191.779)">
                    <path d="M137.588,196.346C136.917,196.192 136.263,196.038 135.683,195.907C136.309,196.067 136.945,196.212 137.588,196.346Z" style="fill:rgb(49,132,180);fill-rule:nonzero;"/>
                </g>
                <g transform="matrix(0.027297,0,0,1.57681,346.909,191.779)">
                    <path d="M113.367,185.355C113.926,185.8 114.512,186.232 115.129,186.647C114.461,186.158 113.88,185.732 113.367,185.355Z" style="fill:rgb(90,179,228);fill-rule:nonzero;"/>
                </g>
                <g transform="matrix(0.027297,0,0,1.57681,346.909,191.779)">
                    <path d="M177.299,72.009C178.242,72.391 179.154,72.771 179.962,73.123C179.116,72.727 178.226,72.357 177.299,72.009Z" style="fill:rgb(90,179,228);fill-rule:nonzero;"/>
                </g>
            </g>
        </g>
    </g>
</svg>
